<svg xmlns="http://www.w3.org/2000/svg" width="3000" height="1200" viewBox="0 0 3000 1200">
<style>text.label{font-family:Arial, sans-serif; font-size:14px; fill:#222}</style>
<g transform="translate(80,100)">
<rect x="0" y="0" width="50" height="30" fill="none" stroke="#444" stroke-width="1.2"/>
<rect x="56" y="0" width="50" height="30" fill="none" stroke="#444" stroke-width="1.2"/>
<rect x="112" y="0" width="50" height="30" fill="none" stroke="#444" stroke-width="1.2"/>
<rect x="0" y="36" width="50" height="30" fill="none" stroke="#444" stroke-width="1.2"/>
<rect x="56" y="36" width="50" height="30" fill="none" stroke="#444" stroke-width="1.2"/>
<rect x="112" y="36" width="50" height="30" fill="none" stroke="#444" stroke-width="1.2"/>
<rect x="0" y="72" width="50" height="30" fill="none" stroke="#444" stroke-width="1.2"/>
<rect x="56" y="72" width="50" height="30" fill="none" stroke="#444" stroke-width="1.2"/>
<rect x="112" y="72" width="50" height="30" fill="none" stroke="#444" stroke-width="1.2"/>
<rect x="0" y="108" width="50" height="30" fill="none" stroke="#444" stroke-width="1.2"/>
<rect x="56" y="108" width="50" height="30" fill="none" stroke="#444" stroke-width="1.2"/>
<rect x="112" y="108" width="50" height="30" fill="none" stroke="#444" stroke-width="1.2"/>
</g>
<rect x="158.0" y="75" width="6" height="25" fill="black"/>
<text x="161.0" y="258" text-anchor="middle" class="label">SCP-N / Array 1 / 11 modules</text>
<g transform="translate(442,100)">
<rect x="0" y="0" width="50" height="30" fill="none" stroke="#444" stroke-width="1.2"/>
<rect x="56" y="0" width="50" height="30" fill="none" stroke="#444" stroke-width="1.2"/>
<rect x="112" y="0" width="50" height="30" fill="none" stroke="#444" stroke-width="1.2"/>
<rect x="0" y="36" width="50" height="30" fill="none" stroke="#444" stroke-width="1.2"/>
<rect x="56" y="36" width="50" height="30" fill="none" stroke="#444" stroke-width="1.2"/>
<rect x="112" y="36" width="50" height="30" fill="none" stroke="#444" stroke-width="1.2"/>
<rect x="0" y="72" width="50" height="30" fill="none" stroke="#444" stroke-width="1.2"/>
<rect x="56" y="72" width="50" height="30" fill="none" stroke="#444" stroke-width="1.2"/>
<rect x="112" y="72" width="50" height="30" fill="none" stroke="#444" stroke-width="1.2"/>
<rect x="0" y="108" width="50" height="30" fill="none" stroke="#444" stroke-width="1.2"/>
<rect x="56" y="108" width="50" height="30" fill="none" stroke="#444" stroke-width="1.2"/>
<rect x="112" y="108" width="50" height="30" fill="none" stroke="#444" stroke-width="1.2"/>
</g>
<rect x="520.0" y="75" width="6" height="25" fill="black"/>
<text x="523.0" y="258" text-anchor="middle" class="label">SCP-N / Array 2 / 11 modules</text>
<g transform="translate(804,100)">
<rect x="0" y="0" width="50" height="30" fill="none" stroke="#444" stroke-width="1.2"/>
<rect x="56" y="0" width="50" height="30" fill="none" stroke="#444" stroke-width="1.2"/>
<rect x="112" y="0" width="50" height="30" fill="none" stroke="#444" stroke-width="1.2"/>
<rect x="0" y="36" width="50" height="30" fill="none" stroke="#444" stroke-width="1.2"/>
<rect x="56" y="36" width="50" height="30" fill="none" stroke="#444" stroke-width="1.2"/>
<rect x="112" y="36" width="50" height="30" fill="none" stroke="#444" stroke-width="1.2"/>
<rect x="0" y="72" width="50" height="30" fill="none" stroke="#444" stroke-width="1.2"/>
<rect x="56" y="72" width="50" height="30" fill="none" stroke="#444" stroke-width="1.2"/>
<rect x="112" y="72" width="50" height="30" fill="none" stroke="#444" stroke-width="1.2"/>
<rect x="0" y="108" width="50" height="30" fill="none" stroke="#444" stroke-width="1.2"/>
<rect x="56" y="108" width="50" height="30" fill="none" stroke="#444" stroke-width="1.2"/>
<rect x="112" y="108" width="50" height="30" fill="none" stroke="#444" stroke-width="1.2"/>
</g>
<rect x="882.0" y="75" width="6" height="25" fill="black"/>
<text x="885.0" y="258" text-anchor="middle" class="label">SCP-N / Array 3 / 11 modules</text>
<g transform="translate(1166,100)">
<rect x="0" y="0" width="50" height="30" fill="none" stroke="#444" stroke-width="1.2"/>
<rect x="56" y="0" width="50" height="30" fill="none" stroke="#444" stroke-width="1.2"/>
<rect x="112" y="0" width="50" height="30" fill="none" stroke="#444" stroke-width="1.2"/>
<rect x="0" y="36" width="50" height="30" fill="none" stroke="#444" stroke-width="1.2"/>
<rect x="56" y="36" width="50" height="30" fill="none" stroke="#444" stroke-width="1.2"/>
<rect x="112" y="36" width="50" height="30" fill="none" stroke="#444" stroke-width="1.2"/>
<rect x="0" y="72" width="50" height="30" fill="none" stroke="#444" stroke-width="1.2"/>
<rect x="56" y="72" width="50" height="30" fill="none" stroke="#444" stroke-width="1.2"/>
<rect x="112" y="72" width="50" height="30" fill="none" stroke="#444" stroke-width="1.2"/>
<rect x="0" y="108" width="50" height="30" fill="none" stroke="#444" stroke-width="1.2"/>
<rect x="56" y="108" width="50" height="30" fill="none" stroke="#444" stroke-width="1.2"/>
<rect x="112" y="108" width="50" height="30" fill="none" stroke="#444" stroke-width="1.2"/>
</g>
<rect x="1244.0" y="75" width="6" height="25" fill="black"/>
<text x="1247.0" y="258" text-anchor="middle" class="label">SCP-N / Array 4 / 11 modules</text>
<g transform="translate(1528,100)">
<rect x="0" y="0" width="50" height="30" fill="none" stroke="#444" stroke-width="1.2"/>
<rect x="56" y="0" width="50" height="30" fill="none" stroke="#444" stroke-width="1.2"/>
<rect x="112" y="0" width="50" height="30" fill="none" stroke="#444" stroke-width="1.2"/>
<rect x="0" y="36" width="50" height="30" fill="none" stroke="#444" stroke-width="1.2"/>
<rect x="56" y="36" width="50" height="30" fill="none" stroke="#444" stroke-width="1.2"/>
<rect x="112" y="36" width="50" height="30" fill="none" stroke="#444" stroke-width="1.2"/>
<rect x="0" y="72" width="50" height="30" fill="none" stroke="#444" stroke-width="1.2"/>
<rect x="56" y="72" width="50" height="30" fill="none" stroke="#444" stroke-width="1.2"/>
<rect x="112" y="72" width="50" height="30" fill="none" stroke="#444" stroke-width="1.2"/>
<rect x="0" y="108" width="50" height="30" fill="none" stroke="#444" stroke-width="1.2"/>
<rect x="56" y="108" width="50" height="30" fill="none" stroke="#444" stroke-width="1.2"/>
<rect x="112" y="108" width="50" height="30" fill="none" stroke="#444" stroke-width="1.2"/>
</g>
<rect x="1606.0" y="75" width="6" height="25" fill="black"/>
<text x="1609.0" y="258" text-anchor="middle" class="label">SCP-N / Array 5 / 12 modules</text>
<g transform="translate(1890,100)">
<rect x="0" y="0" width="50" height="30" fill="none" stroke="#444" stroke-width="1.2"/>
<rect x="56" y="0" width="50" height="30" fill="none" stroke="#444" stroke-width="1.2"/>
<rect x="112" y="0" width="50" height="30" fill="none" stroke="#444" stroke-width="1.2"/>
<rect x="0" y="36" width="50" height="30" fill="none" stroke="#444" stroke-width="1.2"/>
<rect x="56" y="36" width="50" height="30" fill="none" stroke="#444" stroke-width="1.2"/>
<rect x="112" y="36" width="50" height="30" fill="none" stroke="#444" stroke-width="1.2"/>
<rect x="0" y="72" width="50" height="30" fill="none" stroke="#444" stroke-width="1.2"/>
<rect x="56" y="72" width="50" height="30" fill="none" stroke="#444" stroke-width="1.2"/>
<rect x="112" y="72" width="50" height="30" fill="none" stroke="#444" stroke-width="1.2"/>
<rect x="0" y="108" width="50" height="30" fill="none" stroke="#444" stroke-width="1.2"/>
<rect x="56" y="108" width="50" height="30" fill="none" stroke="#444" stroke-width="1.2"/>
<rect x="112" y="108" width="50" height="30" fill="none" stroke="#444" stroke-width="1.2"/>
</g>
<rect x="1968.0" y="75" width="6" height="25" fill="black"/>
<text x="1971.0" y="258" text-anchor="middle" class="label">SCP-N / Array 6 / 12 modules</text>
<g transform="translate(140,600)">
<rect x="0" y="0" width="50" height="30" fill="none" stroke="#444" stroke-width="1.2"/>
<rect x="56" y="0" width="50" height="30" fill="none" stroke="#444" stroke-width="1.2"/>
<rect x="112" y="0" width="50" height="30" fill="none" stroke="#444" stroke-width="1.2"/>
<rect x="0" y="36" width="50" height="30" fill="none" stroke="#444" stroke-width="1.2"/>
<rect x="56" y="36" width="50" height="30" fill="none" stroke="#444" stroke-width="1.2"/>
<rect x="112" y="36" width="50" height="30" fill="none" stroke="#444" stroke-width="1.2"/>
<rect x="0" y="72" width="50" height="30" fill="none" stroke="#444" stroke-width="1.2"/>
<rect x="56" y="72" width="50" height="30" fill="none" stroke="#444" stroke-width="1.2"/>
<rect x="112" y="72" width="50" height="30" fill="none" stroke="#444" stroke-width="1.2"/>
<rect x="0" y="108" width="50" height="30" fill="none" stroke="#444" stroke-width="1.2"/>
<rect x="56" y="108" width="50" height="30" fill="none" stroke="#444" stroke-width="1.2"/>
<rect x="112" y="108" width="50" height="30" fill="none" stroke="#444" stroke-width="1.2"/>
</g>
<rect x="218.0" y="575" width="6" height="25" fill="black"/>
<text x="221.0" y="758" text-anchor="middle" class="label">SCP-S / Array 7 / 12 modules</text>
<g transform="translate(502,600)">
<rect x="0" y="0" width="50" height="30" fill="none" stroke="#444" stroke-width="1.2"/>
<rect x="56" y="0" width="50" height="30" fill="none" stroke="#444" stroke-width="1.2"/>
<rect x="112" y="0" width="50" height="30" fill="none" stroke="#444" stroke-width="1.2"/>
<rect x="0" y="36" width="50" height="30" fill="none" stroke="#444" stroke-width="1.2"/>
<rect x="56" y="36" width="50" height="30" fill="none" stroke="#444" stroke-width="1.2"/>
<rect x="112" y="36" width="50" height="30" fill="none" stroke="#444" stroke-width="1.2"/>
<rect x="0" y="72" width="50" height="30" fill="none" stroke="#444" stroke-width="1.2"/>
<rect x="56" y="72" width="50" height="30" fill="none" stroke="#444" stroke-width="1.2"/>
<rect x="112" y="72" width="50" height="30" fill="none" stroke="#444" stroke-width="1.2"/>
<rect x="0" y="108" width="50" height="30" fill="none" stroke="#444" stroke-width="1.2"/>
<rect x="56" y="108" width="50" height="30" fill="none" stroke="#444" stroke-width="1.2"/>
<rect x="112" y="108" width="50" height="30" fill="none" stroke="#444" stroke-width="1.2"/>
</g>
<rect x="580.0" y="575" width="6" height="25" fill="black"/>
<text x="583.0" y="758" text-anchor="middle" class="label">SCP-S / Array 8 / 12 modules</text>
<g transform="translate(864,600)">
<rect x="0" y="0" width="50" height="30" fill="none" stroke="#444" stroke-width="1.2"/>
<rect x="56" y="0" width="50" height="30" fill="none" stroke="#444" stroke-width="1.2"/>
<rect x="112" y="0" width="50" height="30" fill="none" stroke="#444" stroke-width="1.2"/>
<rect x="0" y="36" width="50" height="30" fill="none" stroke="#444" stroke-width="1.2"/>
<rect x="56" y="36" width="50" height="30" fill="none" stroke="#444" stroke-width="1.2"/>
<rect x="112" y="36" width="50" height="30" fill="none" stroke="#444" stroke-width="1.2"/>
<rect x="0" y="72" width="50" height="30" fill="none" stroke="#444" stroke-width="1.2"/>
<rect x="56" y="72" width="50" height="30" fill="none" stroke="#444" stroke-width="1.2"/>
<rect x="112" y="72" width="50" height="30" fill="none" stroke="#444" stroke-width="1.2"/>
<rect x="0" y="108" width="50" height="30" fill="none" stroke="#444" stroke-width="1.2"/>
<rect x="56" y="108" width="50" height="30" fill="none" stroke="#444" stroke-width="1.2"/>
<rect x="112" y="108" width="50" height="30" fill="none" stroke="#444" stroke-width="1.2"/>
</g>
<rect x="942.0" y="575" width="6" height="25" fill="black"/>
<text x="945.0" y="758" text-anchor="middle" class="label">SCP-S / Array 9 / 11 modules</text>
<g transform="translate(1226,600)">
<rect x="0" y="0" width="50" height="30" fill="none" stroke="#444" stroke-width="1.2"/>
<rect x="56" y="0" width="50" height="30" fill="none" stroke="#444" stroke-width="1.2"/>
<rect x="112" y="0" width="50" height="30" fill="none" stroke="#444" stroke-width="1.2"/>
<rect x="0" y="36" width="50" height="30" fill="none" stroke="#444" stroke-width="1.2"/>
<rect x="56" y="36" width="50" height="30" fill="none" stroke="#444" stroke-width="1.2"/>
<rect x="112" y="36" width="50" height="30" fill="none" stroke="#444" stroke-width="1.2"/>
<rect x="0" y="72" width="50" height="30" fill="none" stroke="#444" stroke-width="1.2"/>
<rect x="56" y="72" width="50" height="30" fill="none" stroke="#444" stroke-width="1.2"/>
<rect x="112" y="72" width="50" height="30" fill="none" stroke="#444" stroke-width="1.2"/>
<rect x="0" y="108" width="50" height="30" fill="none" stroke="#444" stroke-width="1.2"/>
<rect x="56" y="108" width="50" height="30" fill="none" stroke="#444" stroke-width="1.2"/>
<rect x="112" y="108" width="50" height="30" fill="none" stroke="#444" stroke-width="1.2"/>
</g>
<rect x="1304.0" y="575" width="6" height="25" fill="black"/>
<text x="1307.0" y="758" text-anchor="middle" class="label">SCP-S / Array 10 / 11 modules</text>
<g transform="translate(1588,600)">
<rect x="0" y="0" width="50" height="30" fill="none" stroke="#444" stroke-width="1.2"/>
<rect x="56" y="0" width="50" height="30" fill="none" stroke="#444" stroke-width="1.2"/>
<rect x="112" y="0" width="50" height="30" fill="none" stroke="#444" stroke-width="1.2"/>
<rect x="0" y="36" width="50" height="30" fill="none" stroke="#444" stroke-width="1.2"/>
<rect x="56" y="36" width="50" height="30" fill="none" stroke="#444" stroke-width="1.2"/>
<rect x="112" y="36" width="50" height="30" fill="none" stroke="#444" stroke-width="1.2"/>
<rect x="0" y="72" width="50" height="30" fill="none" stroke="#444" stroke-width="1.2"/>
<rect x="56" y="72" width="50" height="30" fill="none" stroke="#444" stroke-width="1.2"/>
<rect x="112" y="72" width="50" height="30" fill="none" stroke="#444" stroke-width="1.2"/>
<rect x="0" y="108" width="50" height="30" fill="none" stroke="#444" stroke-width="1.2"/>
<rect x="56" y="108" width="50" height="30" fill="none" stroke="#444" stroke-width="1.2"/>
<rect x="112" y="108" width="50" height="30" fill="none" stroke="#444" stroke-width="1.2"/>
</g>
<rect x="1666.0" y="575" width="6" height="25" fill="black"/>
<text x="1669.0" y="758" text-anchor="middle" class="label">SCP-S / Array 11 / 11 modules</text>
<g transform="translate(1950,600)">
<rect x="0" y="0" width="50" height="30" fill="none" stroke="#444" stroke-width="1.2"/>
<rect x="56" y="0" width="50" height="30" fill="none" stroke="#444" stroke-width="1.2"/>
<rect x="112" y="0" width="50" height="30" fill="none" stroke="#444" stroke-width="1.2"/>
<rect x="0" y="36" width="50" height="30" fill="none" stroke="#444" stroke-width="1.2"/>
<rect x="56" y="36" width="50" height="30" fill="none" stroke="#444" stroke-width="1.2"/>
<rect x="112" y="36" width="50" height="30" fill="none" stroke="#444" stroke-width="1.2"/>
<rect x="0" y="72" width="50" height="30" fill="none" stroke="#444" stroke-width="1.2"/>
<rect x="56" y="72" width="50" height="30" fill="none" stroke="#444" stroke-width="1.2"/>
<rect x="112" y="72" width="50" height="30" fill="none" stroke="#444" stroke-width="1.2"/>
<rect x="0" y="108" width="50" height="30" fill="none" stroke="#444" stroke-width="1.2"/>
<rect x="56" y="108" width="50" height="30" fill="none" stroke="#444" stroke-width="1.2"/>
<rect x="112" y="108" width="50" height="30" fill="none" stroke="#444" stroke-width="1.2"/>
</g>
<rect x="2028.0" y="575" width="6" height="25" fill="black"/>
<text x="2031.0" y="758" text-anchor="middle" class="label">SCP-S / Array 12 / 11 modules</text>
<text x="40" y="1160" style="font-size:12px; fill:#777; font-family:Arial;">SVG généré automatiquement à partir du schéma original — fond transparent.</text>
</svg>